<mxfile host="app.diagrams.net" modified="2023-09-30T08:17:15.690Z" agent="Mozilla/5.0 (Windows NT 10.0; Win64; x64) AppleWebKit/537.36 (KHTML, like Gecko) Chrome/117.0.0.0 Safari/537.36 Edg/117.0.2045.43" etag="xHfg70n6EcILZoscqVqH" version="22.0.0" type="device">
  <diagram name="Página-1" id="F3URhdhOSK71RHJ_qiEy">
    <mxGraphModel dx="1216" dy="480" grid="1" gridSize="10" guides="1" tooltips="1" connect="1" arrows="1" fold="1" page="1" pageScale="1" pageWidth="827" pageHeight="1169" math="0" shadow="0">
      <root>
        <mxCell id="0" />
        <mxCell id="1" parent="0" />
        <mxCell id="4EikAmjFDCmhzFhq78qV-1" value="inicio" style="rounded=1;whiteSpace=wrap;html=1;arcSize=50;" parent="1" vertex="1">
          <mxGeometry x="20" y="30" width="120" height="60" as="geometry" />
        </mxCell>
        <mxCell id="4EikAmjFDCmhzFhq78qV-2" value="leer calificación numerica" style="rounded=0;whiteSpace=wrap;html=1;" parent="1" vertex="1">
          <mxGeometry x="20" y="120" width="120" height="60" as="geometry" />
        </mxCell>
        <mxCell id="4EikAmjFDCmhzFhq78qV-3" value="Si calificación numérica &amp;gt;=0 y Calificación numérica &amp;lt;= 10" style="rhombus;whiteSpace=wrap;html=1;" parent="1" vertex="1">
          <mxGeometry x="-30" y="220" width="220" height="120" as="geometry" />
        </mxCell>
        <mxCell id="4EikAmjFDCmhzFhq78qV-4" value="si calificación numerica&amp;nbsp; &amp;gt;=9" style="shape=parallelogram;perimeter=parallelogramPerimeter;whiteSpace=wrap;html=1;fixedSize=1;" parent="1" vertex="1">
          <mxGeometry x="-700" y="300" width="210" height="60" as="geometry" />
        </mxCell>
        <mxCell id="4EikAmjFDCmhzFhq78qV-5" value="mostrar &quot; calificación Alfabética : excelente" style="shape=parallelogram;perimeter=parallelogramPerimeter;whiteSpace=wrap;html=1;fixedSize=1;" parent="1" vertex="1">
          <mxGeometry x="-680" y="410" width="150" height="60" as="geometry" />
        </mxCell>
        <mxCell id="4EikAmjFDCmhzFhq78qV-6" value="si calificación numérica &amp;gt;= 7.5" style="shape=parallelogram;perimeter=parallelogramPerimeter;whiteSpace=wrap;html=1;fixedSize=1;" parent="1" vertex="1">
          <mxGeometry x="-390" y="300" width="120" height="60" as="geometry" />
        </mxCell>
        <mxCell id="4EikAmjFDCmhzFhq78qV-7" value="mostrar &quot;calificación alfabetica : notable" style="shape=parallelogram;perimeter=parallelogramPerimeter;whiteSpace=wrap;html=1;fixedSize=1;" parent="1" vertex="1">
          <mxGeometry x="-395" y="410" width="130" height="60" as="geometry" />
        </mxCell>
        <mxCell id="4EikAmjFDCmhzFhq78qV-8" value="si calificación numérica &amp;gt;= 6" style="shape=parallelogram;perimeter=parallelogramPerimeter;whiteSpace=wrap;html=1;fixedSize=1;" parent="1" vertex="1">
          <mxGeometry x="-200" y="300" width="120" height="60" as="geometry" />
        </mxCell>
        <mxCell id="lwBkTbB0radWOCbLJeVB-1" value="mostrar &quot; calificación alfabetica : bien" style="shape=parallelogram;perimeter=parallelogramPerimeter;whiteSpace=wrap;html=1;fixedSize=1;" vertex="1" parent="1">
          <mxGeometry x="-200" y="420" width="120" height="60" as="geometry" />
        </mxCell>
        <mxCell id="lwBkTbB0radWOCbLJeVB-2" value="si calificación numerica &amp;gt;= 5" style="shape=parallelogram;perimeter=parallelogramPerimeter;whiteSpace=wrap;html=1;fixedSize=1;" vertex="1" parent="1">
          <mxGeometry x="230" y="300" width="120" height="60" as="geometry" />
        </mxCell>
        <mxCell id="lwBkTbB0radWOCbLJeVB-3" value="mostrar &quot; calificación alfabetica : insuficiente" style="shape=parallelogram;perimeter=parallelogramPerimeter;whiteSpace=wrap;html=1;fixedSize=1;" vertex="1" parent="1">
          <mxGeometry x="215" y="390" width="150" height="60" as="geometry" />
        </mxCell>
        <mxCell id="lwBkTbB0radWOCbLJeVB-4" value="si calificación numerica &amp;gt;= 3" style="shape=parallelogram;perimeter=parallelogramPerimeter;whiteSpace=wrap;html=1;fixedSize=1;" vertex="1" parent="1">
          <mxGeometry x="460" y="300" width="120" height="60" as="geometry" />
        </mxCell>
        <mxCell id="lwBkTbB0radWOCbLJeVB-5" value="mostrar &quot; calificación alfabetica : muy deficiente" style="shape=parallelogram;perimeter=parallelogramPerimeter;whiteSpace=wrap;html=1;fixedSize=1;" vertex="1" parent="1">
          <mxGeometry x="400" y="390" width="210" height="60" as="geometry" />
        </mxCell>
        <mxCell id="lwBkTbB0radWOCbLJeVB-6" value="si no&amp;nbsp;" style="shape=parallelogram;perimeter=parallelogramPerimeter;whiteSpace=wrap;html=1;fixedSize=1;" vertex="1" parent="1">
          <mxGeometry x="660" y="300" width="120" height="60" as="geometry" />
        </mxCell>
        <mxCell id="lwBkTbB0radWOCbLJeVB-7" value="mostrar &quot; calificación no valida&quot;" style="shape=parallelogram;perimeter=parallelogramPerimeter;whiteSpace=wrap;html=1;fixedSize=1;" vertex="1" parent="1">
          <mxGeometry x="660" y="390" width="120" height="60" as="geometry" />
        </mxCell>
        <mxCell id="lwBkTbB0radWOCbLJeVB-8" value="" style="ellipse;whiteSpace=wrap;html=1;aspect=fixed;" vertex="1" parent="1">
          <mxGeometry x="40" y="570" width="80" height="80" as="geometry" />
        </mxCell>
        <mxCell id="lwBkTbB0radWOCbLJeVB-9" value="" style="endArrow=none;html=1;rounded=0;exitX=0.5;exitY=0;exitDx=0;exitDy=0;" edge="1" parent="1" source="4EikAmjFDCmhzFhq78qV-2">
          <mxGeometry width="50" height="50" relative="1" as="geometry">
            <mxPoint x="30" y="140" as="sourcePoint" />
            <mxPoint x="80" y="90" as="targetPoint" />
          </mxGeometry>
        </mxCell>
        <mxCell id="lwBkTbB0radWOCbLJeVB-10" value="" style="endArrow=none;html=1;rounded=0;exitX=0.5;exitY=0;exitDx=0;exitDy=0;" edge="1" parent="1" source="4EikAmjFDCmhzFhq78qV-3">
          <mxGeometry width="50" height="50" relative="1" as="geometry">
            <mxPoint x="30" y="230" as="sourcePoint" />
            <mxPoint x="80" y="180" as="targetPoint" />
          </mxGeometry>
        </mxCell>
        <mxCell id="lwBkTbB0radWOCbLJeVB-11" value="" style="endArrow=none;html=1;rounded=0;" edge="1" parent="1">
          <mxGeometry width="50" height="50" relative="1" as="geometry">
            <mxPoint x="-320" y="280" as="sourcePoint" />
            <mxPoint x="-30" y="280" as="targetPoint" />
            <Array as="points">
              <mxPoint x="-320" y="300" />
              <mxPoint x="-320" y="280" />
            </Array>
          </mxGeometry>
        </mxCell>
        <mxCell id="lwBkTbB0radWOCbLJeVB-12" value="" style="endArrow=none;html=1;rounded=0;exitX=0.5;exitY=0;exitDx=0;exitDy=0;" edge="1" parent="1" source="4EikAmjFDCmhzFhq78qV-8">
          <mxGeometry width="50" height="50" relative="1" as="geometry">
            <mxPoint x="-180" y="330" as="sourcePoint" />
            <mxPoint x="-130" y="280" as="targetPoint" />
          </mxGeometry>
        </mxCell>
        <mxCell id="lwBkTbB0radWOCbLJeVB-13" value="" style="endArrow=none;html=1;rounded=0;exitX=0.5;exitY=0;exitDx=0;exitDy=0;" edge="1" parent="1" source="4EikAmjFDCmhzFhq78qV-7">
          <mxGeometry width="50" height="50" relative="1" as="geometry">
            <mxPoint x="-370" y="410" as="sourcePoint" />
            <mxPoint x="-320" y="360" as="targetPoint" />
          </mxGeometry>
        </mxCell>
        <mxCell id="lwBkTbB0radWOCbLJeVB-14" value="" style="endArrow=none;html=1;rounded=0;exitX=0.5;exitY=0;exitDx=0;exitDy=0;" edge="1" parent="1" source="lwBkTbB0radWOCbLJeVB-1">
          <mxGeometry width="50" height="50" relative="1" as="geometry">
            <mxPoint x="-190" y="410" as="sourcePoint" />
            <mxPoint x="-140" y="360" as="targetPoint" />
          </mxGeometry>
        </mxCell>
        <mxCell id="lwBkTbB0radWOCbLJeVB-15" value="" style="endArrow=none;html=1;rounded=0;exitX=0;exitY=0.5;exitDx=0;exitDy=0;" edge="1" parent="1" source="lwBkTbB0radWOCbLJeVB-8">
          <mxGeometry width="50" height="50" relative="1" as="geometry">
            <mxPoint x="-370" y="520" as="sourcePoint" />
            <mxPoint x="-320" y="470" as="targetPoint" />
          </mxGeometry>
        </mxCell>
        <mxCell id="lwBkTbB0radWOCbLJeVB-16" value="" style="endArrow=none;html=1;rounded=0;exitX=0;exitY=0;exitDx=0;exitDy=0;" edge="1" parent="1" source="lwBkTbB0radWOCbLJeVB-8">
          <mxGeometry width="50" height="50" relative="1" as="geometry">
            <mxPoint x="-190" y="530" as="sourcePoint" />
            <mxPoint x="-140" y="480" as="targetPoint" />
          </mxGeometry>
        </mxCell>
        <mxCell id="lwBkTbB0radWOCbLJeVB-17" value="" style="endArrow=none;html=1;rounded=0;" edge="1" parent="1">
          <mxGeometry width="50" height="50" relative="1" as="geometry">
            <mxPoint x="-601" y="280" as="sourcePoint" />
            <mxPoint x="-320" y="280" as="targetPoint" />
            <Array as="points">
              <mxPoint x="-601" y="300" />
              <mxPoint x="-601" y="280" />
            </Array>
          </mxGeometry>
        </mxCell>
        <mxCell id="lwBkTbB0radWOCbLJeVB-18" value="" style="endArrow=none;html=1;rounded=0;exitX=0.5;exitY=0;exitDx=0;exitDy=0;" edge="1" parent="1" source="4EikAmjFDCmhzFhq78qV-5">
          <mxGeometry width="50" height="50" relative="1" as="geometry">
            <mxPoint x="-650" y="410" as="sourcePoint" />
            <mxPoint x="-600" y="360" as="targetPoint" />
          </mxGeometry>
        </mxCell>
        <mxCell id="lwBkTbB0radWOCbLJeVB-19" value="" style="endArrow=none;html=1;rounded=0;exitX=0;exitY=1;exitDx=0;exitDy=0;" edge="1" parent="1" source="lwBkTbB0radWOCbLJeVB-8">
          <mxGeometry width="50" height="50" relative="1" as="geometry">
            <mxPoint x="-660" y="520" as="sourcePoint" />
            <mxPoint x="-610" y="470" as="targetPoint" />
          </mxGeometry>
        </mxCell>
        <mxCell id="lwBkTbB0radWOCbLJeVB-20" value="" style="endArrow=none;html=1;rounded=0;" edge="1" parent="1">
          <mxGeometry width="50" height="50" relative="1" as="geometry">
            <mxPoint x="190" y="280" as="sourcePoint" />
            <mxPoint x="731" y="280" as="targetPoint" />
            <Array as="points">
              <mxPoint x="731" y="280" />
              <mxPoint x="730" y="300" />
            </Array>
          </mxGeometry>
        </mxCell>
        <mxCell id="lwBkTbB0radWOCbLJeVB-21" value="" style="endArrow=none;html=1;rounded=0;exitX=0.5;exitY=0;exitDx=0;exitDy=0;" edge="1" parent="1" source="lwBkTbB0radWOCbLJeVB-2">
          <mxGeometry width="50" height="50" relative="1" as="geometry">
            <mxPoint x="250" y="330" as="sourcePoint" />
            <mxPoint x="300" y="280" as="targetPoint" />
          </mxGeometry>
        </mxCell>
        <mxCell id="lwBkTbB0radWOCbLJeVB-22" value="" style="endArrow=none;html=1;rounded=0;exitX=0.5;exitY=0;exitDx=0;exitDy=0;" edge="1" parent="1" source="lwBkTbB0radWOCbLJeVB-4">
          <mxGeometry width="50" height="50" relative="1" as="geometry">
            <mxPoint x="480" y="330" as="sourcePoint" />
            <mxPoint x="530" y="280" as="targetPoint" />
          </mxGeometry>
        </mxCell>
        <mxCell id="lwBkTbB0radWOCbLJeVB-23" value="" style="endArrow=none;html=1;rounded=0;exitX=0.5;exitY=0;exitDx=0;exitDy=0;" edge="1" parent="1" source="lwBkTbB0radWOCbLJeVB-3">
          <mxGeometry width="50" height="50" relative="1" as="geometry">
            <mxPoint x="240" y="410" as="sourcePoint" />
            <mxPoint x="290" y="360" as="targetPoint" />
          </mxGeometry>
        </mxCell>
        <mxCell id="lwBkTbB0radWOCbLJeVB-24" value="" style="endArrow=none;html=1;rounded=0;exitX=0.5;exitY=0;exitDx=0;exitDy=0;" edge="1" parent="1" source="lwBkTbB0radWOCbLJeVB-5">
          <mxGeometry width="50" height="50" relative="1" as="geometry">
            <mxPoint x="470" y="410" as="sourcePoint" />
            <mxPoint x="520" y="360" as="targetPoint" />
          </mxGeometry>
        </mxCell>
        <mxCell id="lwBkTbB0radWOCbLJeVB-25" value="" style="endArrow=none;html=1;rounded=0;exitX=0.5;exitY=0;exitDx=0;exitDy=0;" edge="1" parent="1" source="lwBkTbB0radWOCbLJeVB-7">
          <mxGeometry width="50" height="50" relative="1" as="geometry">
            <mxPoint x="670" y="410" as="sourcePoint" />
            <mxPoint x="720" y="360" as="targetPoint" />
          </mxGeometry>
        </mxCell>
        <mxCell id="lwBkTbB0radWOCbLJeVB-26" value="" style="endArrow=none;html=1;rounded=0;exitX=1;exitY=0;exitDx=0;exitDy=0;" edge="1" parent="1" source="lwBkTbB0radWOCbLJeVB-8">
          <mxGeometry width="50" height="50" relative="1" as="geometry">
            <mxPoint x="230" y="500" as="sourcePoint" />
            <mxPoint x="280" y="450" as="targetPoint" />
          </mxGeometry>
        </mxCell>
        <mxCell id="lwBkTbB0radWOCbLJeVB-27" value="" style="endArrow=none;html=1;rounded=0;exitX=1;exitY=0.5;exitDx=0;exitDy=0;" edge="1" parent="1" source="lwBkTbB0radWOCbLJeVB-8">
          <mxGeometry width="50" height="50" relative="1" as="geometry">
            <mxPoint x="430" y="500" as="sourcePoint" />
            <mxPoint x="480" y="450" as="targetPoint" />
          </mxGeometry>
        </mxCell>
        <mxCell id="lwBkTbB0radWOCbLJeVB-28" value="" style="endArrow=none;html=1;rounded=0;exitX=1;exitY=1;exitDx=0;exitDy=0;entryX=0.5;entryY=1;entryDx=0;entryDy=0;" edge="1" parent="1" source="lwBkTbB0radWOCbLJeVB-8" target="lwBkTbB0radWOCbLJeVB-7">
          <mxGeometry width="50" height="50" relative="1" as="geometry">
            <mxPoint x="670" y="500" as="sourcePoint" />
            <mxPoint x="720" y="450" as="targetPoint" />
          </mxGeometry>
        </mxCell>
        <mxCell id="lwBkTbB0radWOCbLJeVB-29" value="fin" style="rounded=1;whiteSpace=wrap;html=1;arcSize=50;" vertex="1" parent="1">
          <mxGeometry x="20" y="720" width="120" height="60" as="geometry" />
        </mxCell>
        <mxCell id="lwBkTbB0radWOCbLJeVB-30" value="" style="endArrow=none;html=1;rounded=0;exitX=0.5;exitY=0;exitDx=0;exitDy=0;" edge="1" parent="1" source="lwBkTbB0radWOCbLJeVB-29">
          <mxGeometry width="50" height="50" relative="1" as="geometry">
            <mxPoint x="30" y="700" as="sourcePoint" />
            <mxPoint x="80" y="650" as="targetPoint" />
          </mxGeometry>
        </mxCell>
      </root>
    </mxGraphModel>
  </diagram>
</mxfile>
